<svg xmlns="http://www.w3.org/2000/svg" viewBox="0 0 583.08 432.28"><defs><style>.cls-1{fill:#fff;}</style></defs><g id="Layer_2" data-name="Layer 2"><g id="Abs"><g id="_4" data-name="4"><path class="cls-1" d="M274.11,432.28c-57.8,0-115-14.38-162.74-41.13-35.58-19.95-64.65-46.06-84.06-75.52C6.8,284.49-2.46,250.2.56,216.45,7.07,143.53,41.22,84.83,99.31,46.69c38.57-25.32,87-41,140.05-45.44,48.81-4.06,100.3,1.85,145,16.65,43.81,14.51,83.84,34.88,115.76,58.91,31.67,23.83,55.63,51.43,69.31,79.81,15.59,32.33,17.89,65.53,6.68,96a12.06,12.06,0,0,1-7.5,7.34c-6,2-10.71-1.12-14.18-3.38-.94-.61-2.45-1.59-3.6-2.17-1,3,3.84,11.28,5.71,14.51,3.56,6.12,7.24,12.46,3.4,19.24-16.6,29.29-37,47.76-66.71,69.76-60.58,44.92-130.56,70.5-202.38,74Q282.48,432.29,274.11,432.28ZM25.23,257a115.13,115.13,0,0,0,10.67,28.2,88.81,88.81,0,0,0,18,23.52,67.14,67.14,0,0,0,24.95,14.47,70.28,70.28,0,0,0,14.44,2.9,58,58,0,0,0,14.4-.15,27.82,27.82,0,0,0,6.11-1.68,18.47,18.47,0,0,0,2.56-1.26,15.06,15.06,0,0,0,2.06-1.6,11.54,11.54,0,0,0,2.89-4.14,18.11,18.11,0,0,0,1.14-5.65,26.12,26.12,0,0,0-.58-6.6,38,38,0,0,0-2.07-6.81,49.77,49.77,0,0,0-7.5-12.67,48.92,48.92,0,0,0-5.1-5.27c-.93-.75-1.85-1.53-2.83-2.17-.47-.34-1-.68-1.51-1s-1-.67-1.58-.95c-4.25-2.43-8.77-4-13.15-3.87a15.25,15.25,0,0,0-3.23.46,13.74,13.74,0,0,0-3.1,1.18,17.26,17.26,0,0,0-5.41,4.5,26.7,26.7,0,0,0-5.33,14.75,24,24,0,0,1,1-17.35,23.61,23.61,0,0,1,2.43-4.08A20.66,20.66,0,0,1,87,263.91a27.13,27.13,0,0,1,9.92-.06,37.93,37.93,0,0,1,9.07,2.86c.73.3,1.4.66,2.09,1l1,.52,1,.61a46.27,46.27,0,0,1,4,2.6,58.07,58.07,0,0,1,7,6.17,62.12,62.12,0,0,1,10.63,15.14,52.48,52.48,0,0,1,3.47,8.88,40.5,40.5,0,0,1,1.63,9.88,31.68,31.68,0,0,1-1.43,10.72,26.75,26.75,0,0,1-5.82,9.9,31.3,31.3,0,0,1-4.25,3.83,35.39,35.39,0,0,1-4.69,2.8A44.1,44.1,0,0,1,111,342.2a71.38,71.38,0,0,1-18.79,1.48A90.11,90.11,0,0,1,80,342.35,247.11,247.11,0,0,0,122.13,372c44.46,24.92,97.88,38.32,151.94,38.33q7.85,0,15.7-.38c67.45-3.26,133.27-27.34,190.34-69.66,25.83-19.15,43.94-35.2,58.24-58.8-.29-.51-.58-1-.85-1.48-5-8.63-14.34-24.7-4.44-38.71,5-7.11,12.48-10.38,20.44-9a25.55,25.55,0,0,1,5.28,1.59c5.08-21.76,2-44.49-9.19-67.72C524.33,113.75,460,66.13,377.42,38.79,335.5,24.9,287.11,19.35,241.18,23.17c-49.4,4.11-94.28,18.6-129.79,41.91-25,16.42-45.18,37.05-60,61.31-16.13,26.49-25.87,57.45-29,92A121.93,121.93,0,0,0,25.27,257Z"/><g id="Shell"><ellipse class="cls-1" cx="455.19" cy="145.26" rx="15.25" ry="18.03" transform="translate(49.54 397.74) rotate(-49.6)"/><ellipse class="cls-1" cx="500.94" cy="195.75" rx="16.56" ry="19.58" transform="translate(-2.97 383.73) rotate(-41.8)"/><ellipse class="cls-1" cx="407.57" cy="109.24" rx="12.74" ry="14.89" transform="translate(106.64 405.03) rotate(-59.51)"/><ellipse class="cls-1" cx="359.88" cy="85.85" rx="10.38" ry="12.31" transform="translate(151.39 391.49) rotate(-69.12)"/><ellipse class="cls-1" cx="314.32" cy="72.95" rx="8.49" ry="10.05" transform="translate(208.67 377.84) rotate(-83.95)"/></g></g></g></g></svg>