<svg xmlns="http://www.w3.org/2000/svg" viewBox="0 0 1046.82 1046.83"><defs><style>.cls-1,.cls-4,.cls-5,.cls-7,.cls-8{fill:none;stroke:#fff;}.cls-1,.cls-5,.cls-7,.cls-8{stroke-miterlimit:10;}.cls-1{stroke-width:20px;}.cls-2{font-size:130px;}.cls-2,.cls-3,.cls-6{fill:#fff;}.cls-2,.cls-3{font-family:Bebas;}.cls-3{font-size:75px;}.cls-4{stroke-linecap:round;stroke-linejoin:round;stroke-width:12px;}.cls-5{stroke-width:13px;}.cls-7{stroke-width:10px;}.cls-8{stroke-width:15px;}</style></defs><g id="Layer_2" data-name="Layer 2"><g id="Circles"><circle id="_4" data-name="4" class="cls-1" cx="523.41" cy="523.42" r="513.41"/></g><g id="Words"><g id="_4-2" data-name="4"><text class="cls-2" transform="translate(168.4 531.45) rotate(-85.67)">B</text><text class="cls-2" transform="translate(173.83 460.63) rotate(-74.2)">R</text><text class="cls-2" transform="translate(193.45 392.64) rotate(-63.16)">E</text><text class="cls-2" transform="matrix(0.62, -0.78, 0.78, 0.62, 221.9, 334.79)">A</text><text class="cls-2" transform="translate(271.88 272.74) rotate(-39.44)">K</text><text class="cls-2" transform="matrix(0.91, -0.42, 0.42, 0.91, 325.27, 225.63)">W</text><text class="cls-2" transform="matrix(0.98, -0.19, 0.19, 0.98, 417.51, 183.81)">A</text><text class="cls-2" transform="translate(487.49 170.58) rotate(-0.93)">T</text><text class="cls-2" transform="translate(553.1 169.82) rotate(9.89)">E</text><text class="cls-2" transform="translate(617.02 180.76) rotate(20.94)">R</text><text class="cls-2" transform="matrix(0.87, 0.49, -0.49, 0.87, 684.18, 208.34)"> </text><text class="cls-2" transform="matrix(0.8, 0.61, -0.61, 0.8, 711.5, 222.49)">S</text><text class="cls-2" transform="matrix(0.66, 0.75, -0.75, 0.66, 763.41, 261.33)">C</text><text class="cls-2" transform="translate(813.53 317.27) rotate(61.33)">U</text><text class="cls-2" transform="translate(853.13 391.19) rotate(73.87)">B</text><text class="cls-2" transform="translate(873.17 458.88) rotate(86.03)">A</text><text class="cls-3" transform="matrix(0.53, 0.85, -0.85, 0.53, 135.97, 726.01)">M</text><text class="cls-3" transform="matrix(0.65, 0.76, -0.76, 0.65, 173.23, 784.49)">O</text><text class="cls-3" transform="matrix(0.74, 0.67, -0.67, 0.74, 212.69, 830.18)">N</text><text class="cls-3" transform="matrix(0.82, 0.58, -0.58, 0.82, 255.99, 868.16)">T</text><text class="cls-3" transform="matrix(0.87, 0.49, -0.49, 0.87, 293.06, 893.95)">E</text><text class="cls-3" transform="translate(332.31 915.74) rotate(23.32)">R</text><text class="cls-3" transform="translate(376.91 934.39) rotate(17.16)">E</text><text class="cls-3" transform="translate(420.12 947.37) rotate(10.95)">Y</text><text class="cls-3" transform="translate(467.27 955.68) rotate(6.28)"> </text><text class="cls-3" transform="translate(489.83 958.06) rotate(2.86)">-</text><text class="cls-3" transform="translate(519.73 959.29) rotate(-0.93)"> </text><text class="cls-3" transform="matrix(1, -0.09, 0.09, 1, 542.85, 959.29)">C</text><text class="cls-3" transform="translate(594.78 953.98) rotate(-12.36)">A</text><text class="cls-3" transform="matrix(0.95, -0.32, 0.32, 0.95, 647.37, 941.69)">L</text><text class="cls-3" transform="translate(687.52 927.36) rotate(-23.28)">I</text><text class="cls-3" transform="matrix(0.88, -0.47, 0.47, 0.88, 710.69, 917.48)">F</text><text class="cls-3" transform="translate(750.36 896.48) rotate(-34.71)">O</text><text class="cls-3" transform="translate(799.24 861.56) rotate(-41.82)">R</text><text class="cls-3" transform="translate(835.4 828.89) rotate(-48.76)">N</text><text class="cls-3" transform="translate(872.12 785.34) rotate(-54.16)">I</text><text class="cls-3" transform="matrix(0.51, -0.86, 0.86, 0.51, 887.27, 764.86)">A</text></g></g><g id="Helmets"><g id="_4-3" data-name="4"><path class="cls-4" d="M371.22,367.83c15.89-35.24,43-62.7,77.53-79.91"/><path class="cls-4" d="M680.31,496.71a167.69,167.69,0,0,1-8.53,19h0C655.13,548.59,649,575,663.68,593.67c-10.69,18-96.17,25.2-140.27,25.2s-129.58-7.2-140.27-25.2c14.67-18.7,8.55-45.08-8.09-77.93h0a138.07,138.07,0,0,1-8.59-19.59"/><path class="cls-4" d="M599.55,288.67a168.21,168.21,0,0,1,75.93,78.9"/><path class="cls-5" d="M523.57,831.87a220.4,220.4,0,0,1-71.83-12.46,208.49,208.49,0,0,1-78-48c-46.59-45.64-55.47-118.27-48.25-171a24.7,24.7,0,1,1,48.95,6.7,197.51,197.51,0,0,0,2.94,69.94c5.77,24.75,16.18,44.63,30.93,59.08,43.88,43,99.31,46.33,115.25,46.33s71.37-3.35,115.25-46.33c14.76-14.45,25.16-34.33,30.94-59.08a197.74,197.74,0,0,0,2.93-69.94,24.7,24.7,0,1,1,48.95-6.7c7.22,52.75-1.66,125.38-48.25,171a208.53,208.53,0,0,1-78,48A220.49,220.49,0,0,1,523.57,831.87Z"/><path class="cls-6" d="M498.77,391.62A21.36,21.36,0,0,1,514,397.89l49.59,49.59a21.54,21.54,0,0,1-30.45,30.46l-49.59-49.6a21.5,21.5,0,0,1,15.22-36.72m0-10a31.5,31.5,0,0,0-22.29,53.79L526.07,485a31.65,31.65,0,0,0,44.6,0h0a31.64,31.64,0,0,0,0-44.6l-49.6-49.59a31.41,31.41,0,0,0-22.3-9.2Z"/><path class="cls-6" d="M548.37,391.62a21.32,21.32,0,0,1,15.22,6.27,21.55,21.55,0,0,1,0,30.45L514,477.94a21.53,21.53,0,0,1-30.45-30.46l49.59-49.59a21.36,21.36,0,0,1,15.23-6.27m0-10a31.43,31.43,0,0,0-22.3,9.2l-49.59,49.59a31.62,31.62,0,0,0,0,44.6h0a31.64,31.64,0,0,0,44.59,0l49.6-49.6a31.63,31.63,0,0,0,0-44.59h0a31.43,31.43,0,0,0-22.3-9.2Z"/><path class="cls-7" d="M346.56,368.93H367c13.05,0,23.62,28.05,23.62,62.64S380,494.2,367,494.2H346.56"/><ellipse class="cls-7" cx="346.56" cy="431.57" rx="23.62" ry="62.63"/><path class="cls-7" d="M700.25,368.93H679.87c-13,0-23.62,28.05-23.62,62.64s10.57,62.63,23.62,62.63h20.38"/><ellipse class="cls-7" cx="700.25" cy="431.57" rx="23.62" ry="62.63"/><path class="cls-7" d="M447.59,276.58v17.5A23.68,23.68,0,0,0,471.2,317.7H575.94a23.68,23.68,0,0,0,23.61-23.62v-17.5"/><rect class="cls-7" x="447.59" y="252.96" width="151.97" height="47.23" rx="23.62"/><circle class="cls-8" cx="523.57" cy="437.91" r="84.83"/></g></g></g></svg>